<svg version="1.2" xmlns="http://www.w3.org/2000/svg" viewBox="0 0 3750 3750" width="3750" height="3750"><style></style><path  d="m1028 1010.4c-13.3 0-26 5.3-35.4 14.7-9.4 9.5-14.7 22.2-14.6 35.5 0 27.7 22.4 50.1 50 50.1h116.8v1284.7c0 27.6 22.4 49.9 50 50h330.5c20.1 1.3 39.1-9.6 48.1-27.6l306.9-613.7 265.6 199.3v225.2c0.1 27.6 22.4 49.9 50 50h328.1c16.7 2 33.3-4.5 44.2-17.4 10.9-12.8 14.5-30.3 9.8-46.4l-315.5-1104.1h100.5c27.6 0 50-22.4 50-50.1 0-13.3-5.2-26-14.6-35.5-9.4-9.4-22.1-14.7-35.4-14.7h-333.8c-13.3 0-26.1 5.3-35.5 14.7-9.4 9.5-14.6 22.2-14.6 35.5 0 27.7 22.4 50.1 50.1 50.1h116.7v767.4l-253.5-190.2c-11.8-9-27.1-12.2-41.6-8.7-14.4 3.4-26.6 13.1-33.2 26.4l-273.3 546.4-285.2-1141.3h102.7c27.6 0 50-22.4 50-50.1 0.1-13.3-5.2-26-14.6-35.5-9.3-9.4-22.1-14.7-35.4-14.7zm1218.2 407.7l194.6 681.2-194.6-146zm-1001.2 49.6l219.5 877.6h-219.5zm1001.2 610.8l133.3 100h-133.3z"/></svg>